<svg width="80" height="69" viewBox="0 0 80 69" fill="none" xmlns="http://www.w3.org/2000/svg">
        <path d="M51.7269 34.0168C59.1061 34.0168 65.0671 27.9642 65.0671 20.524C65.0671 13.0837 59.1061 7.03113 51.7269 7.03113C44.3478 7.03113 38.3868 13.0837 38.3868 20.524C38.3868 27.9642 44.3478 34.0168 51.7269 34.0168Z" fill="url(#paint0_linear_22_622)" stroke="url(#paint1_linear_22_622)" stroke-width="2"/>
        <path fill-rule="evenodd" clip-rule="evenodd" d="M51.7269 0C51.1184 0 50.6251 0.493291 50.6251 1.1018V4.69845C50.6251 5.30696 51.1184 5.80025 51.7269 5.80025C52.3354 5.80025 52.8287 5.30696 52.8287 4.69845V1.1018C52.8287 0.493291 52.3354 0 51.7269 0ZM51.7269 35.2477C51.1184 35.2477 50.6251 35.741 50.6251 36.3495V39.9461C50.6251 40.5546 51.1184 41.0479 51.7269 41.0479C52.3354 41.0479 52.8287 40.5546 52.8287 39.9461V36.3495C52.8287 35.741 52.3354 35.2477 51.7269 35.2477ZM60.3531 3.15623C60.6564 2.62368 61.331 2.44292 61.8599 2.75249C62.3889 3.06207 62.5718 3.74474 62.2685 4.27729L60.5092 7.3663C60.2059 7.89885 59.5312 8.0796 59.0023 7.77003C58.4734 7.46046 58.2905 6.77779 58.5938 6.24524L60.3531 3.15623ZM44.4516 33.2779C43.9226 32.9683 43.248 33.1491 42.9447 33.6816L41.1854 36.7706C40.8821 37.3032 41.065 37.9858 41.5939 38.2954C42.1229 38.605 42.7975 38.4242 43.1008 37.8917L44.8601 34.8027C45.1634 34.2701 44.9805 33.5875 44.4516 33.2779ZM67.7827 9.85544C68.3106 9.54646 68.984 9.72687 69.2867 10.2584C69.5894 10.7899 69.4069 11.4713 68.8789 11.7803L65.8234 13.5686C65.2955 13.8776 64.6221 13.6972 64.3194 13.1657C64.0167 12.6341 64.1992 11.9528 64.7272 11.6438L67.7827 9.85544ZM39.1345 27.8822C38.8318 27.3507 38.1584 27.1703 37.6305 27.4793L34.575 29.2676C34.0471 29.5766 33.8645 30.258 34.1672 30.7895C34.4699 31.321 35.1433 31.5014 35.6712 31.1925L38.7268 29.4041C39.2547 29.0952 39.4372 28.4138 39.1345 27.8822ZM70.8846 19.4085C71.5006 19.4085 72 19.9079 72 20.524C72 21.14 71.5006 21.6394 70.8846 21.6394H67.3861C66.7701 21.6394 66.2707 21.14 66.2707 20.524C66.2707 19.9079 66.7701 19.4085 67.3861 19.4085H70.8846ZM37.1833 20.524C37.1833 19.9079 36.6839 19.4085 36.0678 19.4085H32.5694C31.9533 19.4085 31.4539 19.9079 31.4539 20.524C31.4539 21.14 31.9533 21.6394 32.5694 21.6394H36.0678C36.6839 21.6394 37.1833 21.14 37.1833 20.524ZM68.8789 29.2676C69.4068 29.5766 69.5894 30.258 69.2867 30.7895C68.984 31.321 68.3106 31.5014 67.7827 31.1925L64.7272 29.4041C64.1992 29.0952 64.0167 28.4138 64.3194 27.8822C64.6221 27.3507 65.2955 27.1703 65.8234 27.4793L68.8789 29.2676ZM39.1345 13.1657C39.4372 12.6341 39.2547 11.9528 38.7267 11.6438L35.6712 9.85544C35.1433 9.54646 34.4699 9.72687 34.1672 10.2584C33.8645 10.7899 34.0471 11.4713 34.575 11.7803L37.6305 13.5686C38.1584 13.8776 38.8318 13.6972 39.1345 13.1657ZM62.2685 36.7706C62.5718 37.3032 62.3889 37.9858 61.8599 38.2954C61.331 38.605 60.6564 38.4242 60.3531 37.8917L58.5938 34.8027C58.2905 34.2701 58.4734 33.5874 59.0023 33.2779C59.5312 32.9683 60.2059 33.1491 60.5092 33.6816L62.2685 36.7706ZM44.4516 7.77002C44.9805 7.46045 45.1634 6.77778 44.8601 6.24523L43.1008 3.15622C42.7975 2.62367 42.1229 2.44291 41.5939 2.75248C41.065 3.06205 40.8821 3.74473 41.1854 4.27728L42.9447 7.36629C43.248 7.89884 43.9226 8.07959 44.4516 7.77002Z" fill="url(#paint2_linear_22_622)"/>
        <g filter="url(#filter0_bd_22_622)">
        <mask id="path-3-outside-1_22_622" maskUnits="userSpaceOnUse" x="4" y="11.6826" width="61" height="39" fill="black">
        <rect fill="white" x="4" y="11.6826" width="61" height="39"/>
        <path fill-rule="evenodd" clip-rule="evenodd" d="M46.7447 29.4209C46.7447 29.9703 46.7169 30.5131 46.6626 31.048C48.3375 29.5743 50.5249 28.6823 52.9182 28.6823C58.1874 28.6823 62.4589 33.0067 62.4589 38.3411C62.4589 43.6756 58.1874 48 52.9182 48C52.9153 48 52.9124 48 52.9096 48H15.8301C15.8272 48 15.8243 48 15.8214 48C15.8185 48 15.8156 48 15.8127 48H15.7653V47.9998C10.3669 47.9692 6 43.5294 6 38.057C6 32.6048 10.3348 28.1775 15.7058 28.1148C16.3615 20.0338 23.0476 13.6826 31.1989 13.6826C39.7846 13.6826 46.7447 20.7289 46.7447 29.4209Z"/>
        </mask>
        <path fill-rule="evenodd" clip-rule="evenodd" d="M46.7447 29.4209C46.7447 29.9703 46.7169 30.5131 46.6626 31.048C48.3375 29.5743 50.5249 28.6823 52.9182 28.6823C58.1874 28.6823 62.4589 33.0067 62.4589 38.3411C62.4589 43.6756 58.1874 48 52.9182 48C52.9153 48 52.9124 48 52.9096 48H15.8301C15.8272 48 15.8243 48 15.8214 48C15.8185 48 15.8156 48 15.8127 48H15.7653V47.9998C10.3669 47.9692 6 43.5294 6 38.057C6 32.6048 10.3348 28.1775 15.7058 28.1148C16.3615 20.0338 23.0476 13.6826 31.1989 13.6826C39.7846 13.6826 46.7447 20.7289 46.7447 29.4209Z" fill="url(#paint3_linear_22_622)" shape-rendering="crispEdges"/>
        <path d="M46.6626 31.048L44.6729 30.8461L44.1586 35.915L47.9838 32.5495L46.6626 31.048ZM15.7653 48H13.7653V50H15.7653V48ZM15.7653 47.9998H17.7653V46.0111L15.7766 45.9999L15.7653 47.9998ZM15.7058 28.1148L15.7291 30.1146L17.5518 30.0934L17.6992 28.2765L15.7058 28.1148ZM48.6524 31.2498C48.7135 30.648 48.7447 30.0378 48.7447 29.4209H44.7447C44.7447 29.9027 44.7203 30.3782 44.6729 30.8461L48.6524 31.2498ZM52.9182 26.6823C50.0175 26.6823 47.3654 27.7657 45.3415 29.5464L47.9838 32.5495C49.3097 31.3829 51.0323 30.6823 52.9182 30.6823V26.6823ZM64.4589 38.3411C64.4589 31.9254 59.3151 26.6823 52.9182 26.6823V30.6823C57.0597 30.6823 60.4589 34.088 60.4589 38.3411H64.4589ZM52.9182 50C59.3151 50 64.4589 44.7569 64.4589 38.3411H60.4589C60.4589 42.5943 57.0597 46 52.9182 46V50ZM52.9096 50C52.9102 50 52.911 50 52.9125 50C52.9139 50 52.916 50 52.9182 50V46C52.9175 46 52.9167 46 52.9152 46C52.9139 46 52.9118 46 52.9096 46V50ZM52.9096 46H15.8301V50H52.9096V46ZM15.8214 50C15.8236 50 15.8257 50 15.827 50C15.8286 50 15.8294 50 15.8301 50V46C15.8279 46 15.8258 46 15.8244 46C15.8229 46 15.8221 46 15.8214 46V50ZM15.8127 50C15.8134 50 15.8142 50 15.8157 50C15.8171 50 15.8192 50 15.8214 50V46C15.8207 46 15.8199 46 15.8184 46C15.817 46 15.8149 46 15.8127 46V50ZM15.8127 46H15.7653V50H15.8127V46ZM17.7653 48V47.9998H13.7653V48H17.7653ZM4 38.057C4 44.6071 9.23312 49.9629 15.7539 49.9998L15.7766 45.9999C11.5007 45.9756 8 42.4517 8 38.057H4ZM15.6824 26.1149C9.19466 26.1907 4 31.5309 4 38.057H8C8 33.6786 11.475 30.1643 15.7291 30.1146L15.6824 26.1149ZM31.1989 11.6826C21.9768 11.6826 14.45 18.8627 13.7123 27.953L17.6992 28.2765C18.2731 21.2049 24.1183 15.6826 31.1989 15.6826V11.6826ZM48.7447 29.4209C48.7447 19.6476 40.9123 11.6826 31.1989 11.6826V15.6826C38.6569 15.6826 44.7447 21.8102 44.7447 29.4209H48.7447Z" fill="url(#paint4_linear_22_622)" mask="url(#path-3-outside-1_22_622)"/>
        </g>
        <defs>
        <filter id="filter0_bd_22_622" x="-11" y="0.682617" width="90.4589" height="68.3174" filterUnits="userSpaceOnUse" color-interpolation-filters="sRGB">
        <feFlood flood-opacity="0" result="BackgroundImageFix"/>
        <feGaussianBlur in="BackgroundImageFix" stdDeviation="5"/>
        <feComposite in2="SourceAlpha" operator="in" result="effect1_backgroundBlur_22_622"/>
        <feColorMatrix in="SourceAlpha" type="matrix" values="0 0 0 0 0 0 0 0 0 0 0 0 0 0 0 0 0 0 127 0" result="hardAlpha"/>
        <feOffset dy="4"/>
        <feGaussianBlur stdDeviation="7.5"/>
        <feComposite in2="hardAlpha" operator="out"/>
        <feColorMatrix type="matrix" values="0 0 0 0 0 0 0 0 0 0 0 0 0 0 0 0 0 0 0.1 0"/>
        <feBlend mode="normal" in2="effect1_backgroundBlur_22_622" result="effect2_dropShadow_22_622"/>
        <feBlend mode="normal" in="SourceGraphic" in2="effect2_dropShadow_22_622" result="shape"/>
        </filter>
        <linearGradient id="paint0_linear_22_622" x1="58.6683" y1="9.81582" x2="47.2435" y2="33.0037" gradientUnits="userSpaceOnUse">
        <stop offset="0.182844" stop-color="#FFE600"/>
        <stop offset="0.980542" stop-color="#F09000"/>
        </linearGradient>
        <linearGradient id="paint1_linear_22_622" x1="45.4236" y1="5.17412" x2="63.168" y2="47.2745" gradientUnits="userSpaceOnUse">
        <stop stop-color="#FFE600"/>
        <stop offset="1" stop-color="#9C8D00"/>
        </linearGradient>
        <linearGradient id="paint2_linear_22_622" x1="66.6012" y1="5.35407" x2="36.093" y2="40.6773" gradientUnits="userSpaceOnUse">
        <stop stop-color="#FFE600"/>
        <stop offset="1" stop-color="#AA9900"/>
        </linearGradient>
        <linearGradient id="paint3_linear_22_622" x1="23.548" y1="13.5395" x2="37.4199" y2="48.026" gradientUnits="userSpaceOnUse">
        <stop stop-color="white"/>
        <stop offset="0.708333" stop-color="#9DDCFF" stop-opacity="0.69"/>
        </linearGradient>
        <linearGradient id="paint4_linear_22_622" x1="32.3984" y1="1.799" x2="51.5914" y2="61.9109" gradientUnits="userSpaceOnUse">
        <stop stop-color="white"/>
        <stop offset="0.713542" stop-color="#85C6EC" stop-opacity="0.71"/>
        </linearGradient>
        </defs>
        </svg>